<mxfile host="app.diagrams.net" modified="2022-02-20T23:58:29.695Z" agent="5.0 (Windows NT 10.0; Win64; x64) AppleWebKit/537.36 (KHTML, like Gecko) Chrome/98.0.4758.102 Safari/537.36" etag="01IFDyEQL4x13FfFswBC" version="16.6.1" type="github">
  <diagram name="Page-1" id="c7558073-3199-34d8-9f00-42111426c3f3">
    <mxGraphModel dx="1038" dy="635" grid="1" gridSize="10" guides="1" tooltips="1" connect="1" arrows="1" fold="1" page="1" pageScale="1" pageWidth="826" pageHeight="1169" background="none" math="0" shadow="0">
      <root>
        <mxCell id="0" />
        <mxCell id="1" parent="0" />
        <mxCell id="r2CEHBMajB01373GKRsO-96" value="init&lt;br&gt;" style="ellipse;whiteSpace=wrap;html=1;" vertex="1" parent="1">
          <mxGeometry x="40" y="40" width="120" height="50" as="geometry" />
        </mxCell>
        <mxCell id="r2CEHBMajB01373GKRsO-97" value="Action&lt;br&gt;" style="rounded=0;whiteSpace=wrap;html=1;" vertex="1" parent="1">
          <mxGeometry x="400" y="220" width="120" height="100" as="geometry" />
        </mxCell>
        <mxCell id="r2CEHBMajB01373GKRsO-98" value="Next State" style="ellipse;whiteSpace=wrap;html=1;" vertex="1" parent="1">
          <mxGeometry x="690" y="220" width="120" height="120" as="geometry" />
        </mxCell>
        <mxCell id="r2CEHBMajB01373GKRsO-103" value="r" style="edgeStyle=segmentEdgeStyle;endArrow=classic;html=1;rounded=0;exitX=1;exitY=0.5;exitDx=0;exitDy=0;entryX=0.5;entryY=0;entryDx=0;entryDy=0;" edge="1" parent="1" source="r2CEHBMajB01373GKRsO-96">
          <mxGeometry width="50" height="50" relative="1" as="geometry">
            <mxPoint x="237" y="85" as="sourcePoint" />
            <mxPoint x="747" y="220" as="targetPoint" />
            <Array as="points">
              <mxPoint x="160" y="70" />
              <mxPoint x="747" y="70" />
            </Array>
          </mxGeometry>
        </mxCell>
        <mxCell id="r2CEHBMajB01373GKRsO-105" value="return { firstState }" style="edgeLabel;html=1;align=center;verticalAlign=middle;resizable=0;points=[];" vertex="1" connectable="0" parent="r2CEHBMajB01373GKRsO-103">
          <mxGeometry x="0.0412" y="-1" relative="1" as="geometry">
            <mxPoint x="-27" as="offset" />
          </mxGeometry>
        </mxCell>
        <mxCell id="r2CEHBMajB01373GKRsO-109" value="effect(s)" style="rounded=0;whiteSpace=wrap;html=1;" vertex="1" parent="1">
          <mxGeometry x="50" y="220" width="120" height="100" as="geometry" />
        </mxCell>
        <mxCell id="r2CEHBMajB01373GKRsO-110" value="dispatch(Action)&lt;br&gt;dispatch([Action, payload])&lt;br&gt;" style="endArrow=classic;html=1;rounded=0;exitX=1;exitY=0.5;exitDx=0;exitDy=0;entryX=0;entryY=0.5;entryDx=0;entryDy=0;" edge="1" parent="1" source="r2CEHBMajB01373GKRsO-109" target="r2CEHBMajB01373GKRsO-97">
          <mxGeometry width="50" height="50" relative="1" as="geometry">
            <mxPoint x="420" y="260" as="sourcePoint" />
            <mxPoint x="470" y="210" as="targetPoint" />
          </mxGeometry>
        </mxCell>
        <mxCell id="r2CEHBMajB01373GKRsO-119" value="" style="edgeStyle=segmentEdgeStyle;endArrow=classic;html=1;rounded=0;exitX=0.75;exitY=1;exitDx=0;exitDy=0;entryX=0.25;entryY=1;entryDx=0;entryDy=0;" edge="1" parent="1" source="r2CEHBMajB01373GKRsO-97" target="r2CEHBMajB01373GKRsO-97">
          <mxGeometry width="50" height="50" relative="1" as="geometry">
            <mxPoint x="490" y="350" as="sourcePoint" />
            <mxPoint x="430" y="330" as="targetPoint" />
            <Array as="points">
              <mxPoint x="490" y="420" />
              <mxPoint x="430" y="420" />
            </Array>
          </mxGeometry>
        </mxCell>
        <mxCell id="r2CEHBMajB01373GKRsO-121" value="&lt;br style=&quot;font-size: 11px&quot;&gt;&lt;span style=&quot;font-size: 11px ; background-color: rgb(255 , 255 , 255)&quot;&gt;return Action&lt;/span&gt;&lt;br style=&quot;font-size: 11px&quot;&gt;&lt;span style=&quot;font-size: 11px ; background-color: rgb(255 , 255 , 255)&quot;&gt;return [Action, payload]&lt;br&gt;&lt;br&gt;&lt;/span&gt;" style="text;html=1;strokeColor=none;fillColor=none;align=center;verticalAlign=middle;whiteSpace=wrap;rounded=0;" vertex="1" parent="1">
          <mxGeometry x="395" y="430" width="130" height="30" as="geometry" />
        </mxCell>
        <mxCell id="r2CEHBMajB01373GKRsO-125" value="return Action" style="html=1;verticalAlign=bottom;endArrow=block;rounded=0;exitX=0.737;exitY=0.956;exitDx=0;exitDy=0;exitPerimeter=0;entryX=0;entryY=0;entryDx=0;entryDy=0;" edge="1" parent="1" source="r2CEHBMajB01373GKRsO-96" target="r2CEHBMajB01373GKRsO-97">
          <mxGeometry width="80" relative="1" as="geometry">
            <mxPoint x="220" y="140" as="sourcePoint" />
            <mxPoint x="300" y="140" as="targetPoint" />
          </mxGeometry>
        </mxCell>
        <mxCell id="r2CEHBMajB01373GKRsO-127" value="return nextState" style="html=1;verticalAlign=bottom;endArrow=block;rounded=0;exitX=1;exitY=0.25;exitDx=0;exitDy=0;" edge="1" parent="1" source="r2CEHBMajB01373GKRsO-97">
          <mxGeometry width="80" relative="1" as="geometry">
            <mxPoint x="520" y="290" as="sourcePoint" />
            <mxPoint x="690" y="245" as="targetPoint" />
          </mxGeometry>
        </mxCell>
        <mxCell id="r2CEHBMajB01373GKRsO-128" value="return [nextState, effects(s)]" style="html=1;verticalAlign=bottom;endArrow=block;rounded=0;exitX=1;exitY=0.75;exitDx=0;exitDy=0;entryX=0;entryY=0.625;entryDx=0;entryDy=0;entryPerimeter=0;" edge="1" parent="1" source="r2CEHBMajB01373GKRsO-97" target="r2CEHBMajB01373GKRsO-98">
          <mxGeometry width="80" relative="1" as="geometry">
            <mxPoint x="380" y="290" as="sourcePoint" />
            <mxPoint x="640" y="370" as="targetPoint" />
          </mxGeometry>
        </mxCell>
        <mxCell id="r2CEHBMajB01373GKRsO-129" value="" style="edgeStyle=segmentEdgeStyle;endArrow=classic;html=1;rounded=0;" edge="1" parent="1">
          <mxGeometry width="50" height="50" relative="1" as="geometry">
            <mxPoint x="600" y="290" as="sourcePoint" />
            <mxPoint x="120" y="330" as="targetPoint" />
            <Array as="points">
              <mxPoint x="600" y="510" />
            </Array>
          </mxGeometry>
        </mxCell>
      </root>
    </mxGraphModel>
  </diagram>
</mxfile>
